<svg preserveAspectRatio="none" width="100%" height="100%" overflow="visible" style="display: block;" viewBox="0 0 150.062 160.546" fill="none" xmlns="http://www.w3.org/2000/svg">
<path id="Union" d="M44.0893 0.00910426C50.6037 0.0900761 56.1269 1.32398 60.6586 3.71125C65.2308 6.05803 68.771 9.45684 71.2797 13.9075C73.7884 18.3585 75.2452 23.8011 75.6499 30.2347L55.8032 30.1741C55.6009 27.5036 55.0949 25.1563 54.2856 23.1331C53.5168 21.0697 52.2828 19.451 50.5834 18.2777C48.884 17.1042 46.5568 16.4567 43.603 16.3353C40.0425 16.1735 37.008 16.9226 34.4995 18.5814C31.9908 20.1999 29.8864 22.3646 28.187 25.0755C26.528 27.7865 25.2128 30.7202 24.2416 33.8763C23.311 37.0324 22.6433 40.0474 22.2387 42.9202L21.5707 48.0179C21.247 50.7289 21.0452 53.6023 20.9643 56.637C20.9238 59.6716 21.2673 62.5242 21.9956 65.1947C22.7239 67.8652 24.0391 70.0509 25.9409 71.7503C27.8831 73.4498 30.6551 74.3393 34.2563 74.4202C35.8342 74.4607 37.3515 74.3602 38.8081 74.1175C40.3051 73.8747 41.742 73.4902 43.1176 72.9642C44.5338 72.3977 45.8892 71.6889 47.184 70.8392L49.9155 57.0618H35.5307L38.0805 42.4349H73.2221L68.2836 73.9027L69.4643 127.007L89.6704 72.1751H107.332L110.691 127.382L129.123 72.1751H150.062L118.015 160.546H96.5903L92.976 110.476L73.9506 160.546H52.4038L48.8637 88.9749C47.4158 89.3197 45.9461 89.6086 44.4536 89.8372C40.0026 90.5656 35.814 90.8889 31.8891 90.8079C25.7388 90.727 20.4989 89.5132 16.1694 87.1663C11.8803 84.8195 8.46075 81.6429 5.91157 77.637C3.36253 73.6313 1.64353 69.079 0.753367 63.9808C-0.136796 58.8825 -0.23821 53.5412 0.449656 47.9573L1.11665 43.1019C1.88545 37.3562 3.38338 31.8934 5.60884 26.7142C7.87475 21.4946 10.8085 16.862 14.4096 12.8157C18.0108 8.76944 22.2798 5.59284 27.2163 3.28645C32.1931 0.980161 37.8177 -0.112282 44.0893 0.00910426Z" fill="url(#paint0_linear_0_4)"/>
<defs>
<linearGradient id="paint0_linear_0_4" x1="30.5537" y1="-31.2496" x2="134.95" y2="231.438" gradientUnits="userSpaceOnUse">
<stop offset="0.292509" stop-color="#FCC321"/>
<stop offset="1" stop-color="#967414"/>
</linearGradient>
</defs>
</svg>
